<svg xmlns="http://www.w3.org/2000/svg" viewBox="0 0 100 100" width="100" height="100">
  <!-- Background circle with WhatsApp-like gradient -->
  <defs>
    <linearGradient id="bgGradient" x1="0%" y1="0%" x2="100%" y2="100%">
      <stop offset="0%" style="stop-color:#25D366;stop-opacity:1" />
      <stop offset="100%" style="stop-color:#128C7E;stop-opacity:1" />
    </linearGradient>
    <linearGradient id="globeGradient" x1="0%" y1="0%" x2="100%" y2="100%">
      <stop offset="0%" style="stop-color:#ffffff;stop-opacity:0.9" />
      <stop offset="100%" style="stop-color:#f0f0f0;stop-opacity:0.8" />
    </linearGradient>
  </defs>
  
  <!-- Main background circle -->
  <circle cx="50" cy="50" r="45" fill="url(#bgGradient)" stroke="#128C7E" stroke-width="2"/>
  
  <!-- Globe container -->
  <g transform="translate(50,50)">
    <!-- Globe circle -->
    <circle cx="0" cy="0" r="20" fill="url(#globeGradient)" stroke="#ffffff" stroke-width="1.5"/>
    
    <!-- Longitude lines -->
    <path d="M-20,0 Q0,-15 20,0 Q0,15 -20,0" fill="none" stroke="#25D366" stroke-width="1.2" opacity="0.7"/>
    <path d="M-14,-14 Q0,-20 14,-14 Q0,-8 -14,-14" fill="none" stroke="#25D366" stroke-width="1" opacity="0.6"/>
    <path d="M-14,14 Q0,20 14,14 Q0,8 -14,14" fill="none" stroke="#25D366" stroke-width="1" opacity="0.6"/>
    
    <!-- Latitude lines -->
    <ellipse cx="0" cy="0" rx="20" ry="8" fill="none" stroke="#25D366" stroke-width="1.2" opacity="0.7"/>
    <ellipse cx="0" cy="0" rx="20" ry="4" fill="none" stroke="#25D366" stroke-width="1" opacity="0.6"/>
    <ellipse cx="0" cy="0" rx="20" ry="12" fill="none" stroke="#25D366" stroke-width="1" opacity="0.6"/>
    
    <!-- Central meridian -->
    <ellipse cx="0" cy="0" rx="2" ry="20" fill="none" stroke="#25D366" stroke-width="1.2" opacity="0.8"/>
    
    <!-- Continents silhouettes -->
    <g opacity="0.6">
      <!-- Africa/Europe -->
      <path d="M-8,-12 Q-6,-8 -4,-6 Q-2,-4 0,-2 Q2,-4 4,-8 Q6,-12 8,-10 Q6,-6 4,-2 Q2,2 0,6 Q-2,4 -4,2 Q-6,-2 -8,-6 Z" fill="#128C7E"/>
      <!-- Americas -->
      <path d="M-16,-8 Q-14,-4 -12,0 Q-14,4 -16,8 Q-18,6 -16,2 Q-18,-2 -16,-6 Z" fill="#128C7E"/>
      <!-- Asia -->
      <path d="M8,-8 Q12,-6 16,-4 Q14,0 12,4 Q8,6 6,2 Q8,-2 8,-6 Z" fill="#128C7E"/>
    </g>
  </g>
  
  <!-- Subtle shadow effect -->
  <circle cx="52" cy="52" r="45" fill="none" stroke="#000000" stroke-width="1" opacity="0.1"/>
</svg>